<svg width="21" height="21" viewBox="0 0 21 21" fill="none" xmlns="http://www.w3.org/2000/svg">
<path d="M16.9615 0.526367H4.03846C2.96739 0.526367 1.9402 0.929453 1.18284 1.64695C0.42548 2.36445 0 3.33758 0 4.35228V16.5952C0 17.6099 0.42548 18.583 1.18284 19.3005C1.9402 20.018 2.96739 20.4211 4.03846 20.4211H10.5C10.7142 20.4211 10.9197 20.3405 11.0711 20.197C11.2226 20.0535 11.3077 19.8589 11.3077 19.6559V13.5345C11.3077 13.3315 11.2226 13.1369 11.0711 12.9934C10.9197 12.8499 10.7142 12.7693 10.5 12.7693H9.69231V11.2389H10.5C10.7142 11.2389 10.9197 11.1583 11.0711 11.0148C11.2226 10.8713 11.3077 10.6767 11.3077 10.4737V7.7956C11.3077 7.28825 11.5204 6.80168 11.8991 6.44293C12.2778 6.08419 12.7914 5.88264 13.3269 5.88264H15.3462V7.41301H14.5385C14.11 7.41301 13.6992 7.57424 13.3962 7.86124C13.0933 8.14824 12.9231 8.53749 12.9231 8.94337V10.4737C12.9231 10.6767 13.0082 10.8713 13.1596 11.0148C13.3111 11.1583 13.5166 11.2389 13.7308 11.2389H15.12L14.7162 12.7693H13.7308C13.5166 12.7693 13.3111 12.8499 13.1596 12.9934C13.0082 13.1369 12.9231 13.3315 12.9231 13.5345V16.5952C12.9231 16.7981 13.0082 16.9928 13.1596 17.1363C13.3111 17.2798 13.5166 17.3604 13.7308 17.3604C13.945 17.3604 14.1504 17.2798 14.3019 17.1363C14.4534 16.9928 14.5385 16.7981 14.5385 16.5952V14.2996H15.3462C15.5307 14.3047 15.7114 14.2498 15.8584 14.144C16.0054 14.0382 16.1096 13.8879 16.1538 13.7181L16.9615 10.6574C16.9918 10.5444 16.9944 10.4265 16.9692 10.3124C16.944 10.1984 16.8917 10.0913 16.8162 9.99932C16.7376 9.905 16.6367 9.82953 16.5217 9.77901C16.4066 9.7285 16.2806 9.70436 16.1538 9.70855H14.5385V8.94337H16.1538C16.3681 8.94337 16.5735 8.86275 16.725 8.71925C16.8764 8.57576 16.9615 8.38113 16.9615 8.17819V5.11746C16.9615 4.91452 16.8764 4.71989 16.725 4.57639C16.5735 4.4329 16.3681 4.35228 16.1538 4.35228H13.3269C12.3636 4.3543 11.4404 4.71773 10.7592 5.36304C10.0781 6.00835 9.69444 6.88299 9.69231 7.7956V9.70855H8.88462C8.6704 9.70855 8.46496 9.78917 8.31349 9.93267C8.16202 10.0762 8.07692 10.2708 8.07692 10.4737V13.5345C8.07692 13.7374 8.16202 13.932 8.31349 14.0755C8.46496 14.219 8.6704 14.2996 8.88462 14.2996H9.69231V18.8907H4.03846C3.39582 18.8907 2.7795 18.6489 2.32509 18.2184C1.87067 17.7879 1.61538 17.204 1.61538 16.5952V4.35228C1.61538 3.74346 1.87067 3.15958 2.32509 2.72908C2.7795 2.29858 3.39582 2.05673 4.03846 2.05673H16.9615C17.6042 2.05673 18.2205 2.29858 18.6749 2.72908C19.1293 3.15958 19.3846 3.74346 19.3846 4.35228V16.5952C19.3846 17.204 19.1293 17.7879 18.6749 18.2184C18.2205 18.6489 17.6042 18.8907 16.9615 18.8907H13.7308C13.5166 18.8907 13.3111 18.9714 13.1596 19.1149C13.0082 19.2584 12.9231 19.453 12.9231 19.6559C12.9231 19.8589 13.0082 20.0535 13.1596 20.197C13.3111 20.3405 13.5166 20.4211 13.7308 20.4211H16.9615C18.0326 20.4211 19.0598 20.018 19.8172 19.3005C20.5745 18.583 21 17.6099 21 16.5952V4.35228C21 3.33758 20.5745 2.36445 19.8172 1.64695C19.0598 0.929453 18.0326 0.526367 16.9615 0.526367V0.526367Z" fill="#9747FF"/>
</svg>
