<svg width="21" height="21" viewBox="0 0 21 21" fill="none" xmlns="http://www.w3.org/2000/svg">
<path d="M16.4794 5.51736C16.9517 5.51736 17.3347 5.15457 17.3347 4.70704C17.3347 4.25952 16.9517 3.89673 16.4794 3.89673C16.007 3.89673 15.624 4.25952 15.624 4.70704C15.624 5.15457 16.007 5.51736 16.4794 5.51736Z" fill="#9747FF"/>
<path d="M14.1725 8.15922C13.9609 8.23679 13.7906 8.39077 13.6989 8.58732C13.6072 8.78387 13.6016 9.00687 13.6835 9.20729C13.9669 9.89984 13.9906 10.6636 13.7507 11.3707C13.5109 12.0779 13.022 12.6856 12.3658 13.0921C11.7096 13.4986 10.926 13.6794 10.146 13.604C9.36597 13.5287 8.63693 13.2019 8.08083 12.6783C7.52472 12.1547 7.17528 11.4661 7.09096 10.7276C7.00664 9.98917 7.19255 9.24567 7.61761 8.62153C8.04266 7.99738 8.68107 7.53045 9.42602 7.29886C10.171 7.06726 10.9773 7.08504 11.71 7.34923C11.8154 7.38898 11.9281 7.40847 12.0415 7.40657C12.1549 7.40467 12.2668 7.38141 12.3707 7.33816C12.4745 7.29491 12.5682 7.23253 12.6464 7.15464C12.7245 7.07675 12.7855 6.98492 12.8258 6.88448C12.8662 6.78404 12.885 6.677 12.8813 6.5696C12.8775 6.4622 12.8513 6.35658 12.804 6.25888C12.7568 6.16119 12.6895 6.07337 12.6061 6.00054C12.5227 5.92771 12.4248 5.87133 12.3182 5.83467C11.2193 5.4387 10.0102 5.41222 8.89315 5.75967C7.77611 6.10712 6.81888 6.80741 6.18159 7.74341C5.5443 8.67941 5.2656 9.79434 5.39211 10.9017C5.51862 12.0091 6.04266 13.0417 6.87659 13.8268C7.71051 14.612 8.80373 15.102 9.97337 15.215C11.143 15.328 12.3181 15.057 13.3022 14.4475C14.2862 13.838 15.0194 12.9268 15.3792 11.8664C15.7391 10.806 15.7036 9.66074 15.2788 8.62216C15.1969 8.42179 15.0343 8.26046 14.8268 8.17365C14.6194 8.08683 14.384 8.08165 14.1725 8.15922Z" fill="#9747FF"/>
<path d="M20.7563 4.70717C20.7598 3.64581 20.3218 2.62587 19.5372 1.86822C18.7526 1.11057 17.6846 0.676198 16.5644 0.659156H16.5578C12.5202 0.483722 8.46408 0.481697 4.50499 0.655591C3.38726 0.67106 2.31894 1.09457 1.52268 1.83786C0.726418 2.58114 0.263645 3.58686 0.230802 4.64543C-0.0761036 8.4419 -0.0769329 12.255 0.228321 16.0516C0.224521 17.1123 0.661778 18.1317 1.44545 18.8892C2.22912 19.6468 3.29616 20.0815 4.41561 20.0992H4.42228C6.45242 20.2401 14.5067 20.2524 16.5231 20.1028C17.6295 20.0685 18.6811 19.6384 19.4661 18.8989C20.251 18.1594 20.711 17.1656 20.7534 16.1176C21.0812 12.3205 21.0822 8.50444 20.7563 4.70717V4.70717ZM19.0457 16.0516C18.8653 17.3238 18.4911 18.2666 16.397 18.4865C12.439 18.7815 8.4627 18.7802 4.50499 18.4826C3.81813 18.4669 3.16497 18.1974 2.68504 17.7316C2.20511 17.2659 1.93647 16.6408 1.93651 15.9899C1.63536 12.2343 1.63619 8.46257 1.93899 4.70717C1.97132 4.05926 2.2625 3.44724 2.75348 2.99517C3.24447 2.5431 3.89853 2.28481 4.58308 2.27266C8.54603 2.07994 12.5168 2.08113 16.4797 2.27622C17.1628 2.30463 17.8089 2.57873 18.2862 3.04266C18.7635 3.5066 19.0361 4.12548 19.0486 4.77321C19.3694 8.52657 19.3684 12.2984 19.0457 16.0516V16.0516Z" fill="#9747FF"/>
</svg>
