<svg width="14" height="11" viewBox="0 0 14 11" fill="none" xmlns="http://www.w3.org/2000/svg">
<mask id="path-1-inside-1_834_10886" fill="white">
<path d="M12.6875 0H1.31251C0.588747 0 0 0.588747 0 1.31251V9.18751C0 9.91127 0.588747 10.5 1.31251 10.5H12.6875C13.4113 10.5 14 9.91127 14 9.18751V1.31251C14 0.588747 13.4113 0 12.6875 0ZM12.6875 0.874996C12.7469 0.874996 12.8035 0.887329 12.8552 0.908867L7 5.98359L1.14479 0.908867C1.19649 0.887358 1.25304 0.874996 1.31248 0.874996H12.6875ZM12.6875 9.62499H1.31251C1.07112 9.62499 0.874996 9.4289 0.874996 9.18748V1.83331L6.71331 6.89319C6.79578 6.96452 6.89789 7 7 7C7.10211 7 7.20422 6.96455 7.28669 6.89319L13.125 1.83331V9.18751C13.125 9.4289 12.9289 9.62499 12.6875 9.62499Z"/>
</mask>
<path d="M12.6875 0H1.31251C0.588747 0 0 0.588747 0 1.31251V9.18751C0 9.91127 0.588747 10.5 1.31251 10.5H12.6875C13.4113 10.5 14 9.91127 14 9.18751V1.31251C14 0.588747 13.4113 0 12.6875 0ZM12.6875 0.874996C12.7469 0.874996 12.8035 0.887329 12.8552 0.908867L7 5.98359L1.14479 0.908867C1.19649 0.887358 1.25304 0.874996 1.31248 0.874996H12.6875ZM12.6875 9.62499H1.31251C1.07112 9.62499 0.874996 9.4289 0.874996 9.18748V1.83331L6.71331 6.89319C6.79578 6.96452 6.89789 7 7 7C7.10211 7 7.20422 6.96455 7.28669 6.89319L13.125 1.83331V9.18751C13.125 9.4289 12.9289 9.62499 12.6875 9.62499Z" fill="#9747FF"/>
<path d="M12.8552 0.908867L14.1651 2.42022L16.6058 0.30482L13.6243 -0.937318L12.8552 0.908867ZM7 5.98359L5.69011 7.49494L7 8.63023L8.3099 7.49494L7 5.98359ZM1.14479 0.908867L0.376525 -0.937688L-2.60715 0.303684L-0.165099 2.42022L1.14479 0.908867ZM0.874996 1.83331L2.18486 0.321932L-1.125 -2.54662V1.83331H0.874996ZM6.71331 6.89319L5.40345 8.40456L5.4049 8.40582L6.71331 6.89319ZM7.28669 6.89319L8.59541 8.40555L8.59655 8.40456L7.28669 6.89319ZM13.125 1.83331H15.125V-2.54662L11.8151 0.321932L13.125 1.83331ZM13.125 9.18751L15.125 9.18775V9.18751H13.125ZM12.6875 -2H1.31251V2H12.6875V-2ZM1.31251 -2C-0.515822 -2 -2 -0.515822 -2 1.31251H2C2 1.69332 1.69332 2 1.31251 2V-2ZM-2 1.31251V9.18751H2V1.31251H-2ZM-2 9.18751C-2 11.0158 -0.515822 12.5 1.31251 12.5V8.50001C1.69332 8.50001 2 8.8067 2 9.18751H-2ZM1.31251 12.5H12.6875V8.50001H1.31251V12.5ZM12.6875 12.5C14.5158 12.5 16 11.0158 16 9.18751H12C12 8.8067 12.3067 8.50001 12.6875 8.50001V12.5ZM16 9.18751V1.31251H12V9.18751H16ZM16 1.31251C16 -0.515824 14.5158 -2 12.6875 -2V2C12.3067 2 12 1.69332 12 1.31251H16ZM12.6875 2.875C12.4673 2.875 12.2632 2.82887 12.086 2.75505L13.6243 -0.937318C13.3438 -1.05421 13.0266 -1.125 12.6875 -1.125V2.875ZM11.5453 -0.602481L5.6901 4.47224L8.3099 7.49494L14.1651 2.42022L11.5453 -0.602481ZM8.30989 4.47224L2.45468 -0.602485L-0.165099 2.42022L5.69011 7.49494L8.30989 4.47224ZM1.91306 2.75542C1.73708 2.82864 1.53332 2.875 1.31248 2.875V-1.125C0.972753 -1.125 0.655897 -1.05392 0.376525 -0.937688L1.91306 2.75542ZM1.31248 2.875H12.6875V-1.125H1.31248V2.875ZM12.6875 7.62499H1.31251V11.625H12.6875V7.62499ZM1.31251 7.62499C2.1756 7.62499 2.875 8.32424 2.875 9.18748H-1.125C-1.125 10.5336 -0.0333656 11.625 1.31251 11.625V7.62499ZM2.875 9.18748V1.83331H-1.125V9.18748H2.875ZM-0.434865 3.34469L5.40345 8.40456L8.02317 5.38181L2.18486 0.321932L-0.434865 3.34469ZM5.4049 8.40582C5.86303 8.8021 6.43379 9 7 9V5C7.36199 5 7.72853 5.12695 8.02172 5.38055L5.4049 8.40582ZM7 9C7.56587 9 8.13688 8.80233 8.59541 8.40555L5.97797 5.38082C6.27155 5.12677 6.63835 5 7 5V9ZM8.59655 8.40456L14.4349 3.34469L11.8151 0.321932L5.97683 5.38181L8.59655 8.40456ZM11.125 1.83331V9.18751H15.125V1.83331H11.125ZM11.125 9.18726C11.1251 8.32432 11.8243 7.62499 12.6875 7.62499V11.625C14.0335 11.625 15.1248 10.5335 15.125 9.18775L11.125 9.18726Z" fill="#9747FF" mask="url(#path-1-inside-1_834_10886)"/>
</svg>
