<svg width="21" height="21" viewBox="0 0 21 21" fill="none" xmlns="http://www.w3.org/2000/svg">
<path d="M10.5 0.526367C4.71006 0.526367 0 4.64519 0 9.70855C0.00350166 11.5343 0.618394 13.3118 1.75617 14.7854C1.81832 14.8668 1.89679 14.9359 1.98711 14.9886C2.07743 15.0413 2.17783 15.0767 2.28257 15.0926C2.3873 15.1086 2.49434 15.1048 2.59755 15.0816C2.70076 15.0584 2.79813 15.0161 2.88411 14.9572C2.97008 14.8984 3.04297 14.824 3.09862 14.7385C3.15426 14.6529 3.19157 14.5578 3.20842 14.4586C3.22526 14.3593 3.22131 14.2579 3.19679 14.1601C3.17227 14.0624 3.12767 13.9701 3.06552 13.8887C2.12715 12.6759 1.61939 11.2122 1.61538 9.70855C1.61538 5.48957 5.60102 2.05673 10.5 2.05673C15.399 2.05673 19.3846 5.48957 19.3846 9.70855C19.3846 13.9275 15.399 17.3604 10.5 17.3604C9.58155 17.3608 8.66773 17.2372 7.78615 16.9931C7.66566 16.9599 7.53869 16.9537 7.41523 16.975C7.29178 16.9962 7.17522 17.0443 7.07474 17.1155L5.65385 18.1256V16.5354C5.65385 16.3325 5.56875 16.1379 5.41728 15.9944C5.26581 15.8509 5.06037 15.7703 4.84615 15.7703C4.63194 15.7703 4.4265 15.8509 4.27503 15.9944C4.12356 16.1379 4.03846 16.3325 4.03846 16.5354V19.6559C4.03913 19.7979 4.08117 19.9369 4.15994 20.0577C4.23871 20.1785 4.35115 20.2763 4.48487 20.3404C4.62097 20.3965 4.76976 20.4192 4.91757 20.4066C5.06538 20.394 5.20747 20.3463 5.33077 20.2681L7.72784 18.5651C8.63417 18.7816 9.5653 18.891 10.5 18.8907C16.2899 18.8907 21 14.7719 21 9.70855C21 4.64519 16.2899 0.526367 10.5 0.526367Z" fill="#9747FF"/>
<path d="M4.40002 13.4536L8.72553 11.4047L10.1658 12.7692C10.4689 13.0558 10.8797 13.2168 11.308 13.2168C11.7362 13.2168 12.147 13.0558 12.4501 12.7692L17.5329 7.95389C17.6684 7.82541 17.7513 7.65541 17.7667 7.47432C17.7821 7.29323 17.729 7.11286 17.6169 6.96548C17.5048 6.81809 17.3409 6.71332 17.1547 6.66989C16.9685 6.62646 16.7721 6.64722 16.6005 6.72845L12.275 8.77738L10.8347 7.4129C10.5315 7.1265 10.1208 6.96567 9.69258 6.96567C9.26439 6.96567 8.85366 7.1265 8.55042 7.4129L3.4677 12.2282C3.3311 12.3562 3.24749 12.5263 3.23208 12.7077C3.21667 12.8892 3.27046 13.0698 3.3837 13.2168C3.50311 13.3553 3.6668 13.4533 3.8501 13.496C4.03341 13.5387 4.22641 13.5239 4.40002 13.4536ZM9.69258 8.49495C9.69258 8.49495 11.0481 9.84511 11.5446 10.2494C11.6699 10.3542 11.824 10.4232 11.9889 10.4486C12.1539 10.474 12.3231 10.4547 12.4769 10.3929C12.5781 10.3517 12.8713 10.2061 12.8713 10.2061L11.308 11.6871C11.308 11.6871 9.9294 10.3611 9.45593 9.93265C9.33681 9.81795 9.1822 9.7422 9.01455 9.7164C8.8469 9.6906 8.67493 9.71609 8.52361 9.78918C8.42313 9.8321 8.12929 9.97596 8.12929 9.97596L9.69258 8.49495Z" fill="#9747FF"/>
</svg>
